<?xml version="1.0" encoding="UTF-8"?><svg xmlns="http://www.w3.org/2000/svg" xmlns:sketch="http://www.bohemiancoding.com/sketch/ns" xmlns:xlink="http://www.w3.org/1999/xlink" height="60px" version="1.1" viewBox="0 0 60 60" width="60px"><title/><g fill="none" fill-rule="evenodd" id="Page-1" stroke="none" stroke-width="1"><g fill="#1B1A19" id="Fill-175-+-Fill-176-+-Fill-177"><path d="M60 38a1 1 0 0 0-1-1h-5.09c-.479-2.833-2.943-5-5.91-5s-5.431 2.167-5.91 5H19.91c-.479-2.833-2.943-5-5.91-5s-5.431 2.167-5.91 5H1a1 1 0 0 0 0 2h2v7c0 2.617 2.477 5 5.198 5h2.958l4.981 8.505a1 1 0 0 0 1.223.428l5.564-2.145 4.661 2.122.014.003.185.044.2.04L28 60l.171-.034.187-.032 5.744-2.2 5.529 2.195a1 1 0 0 0 1.243-.443L45.588 51H54c2.369 0 6-2.24 6-5v-7a.977.977 0 0 0-.153-.5A.977.977 0 0 0 60 38zm-12-4c2.206 0 4 1.794 4 4s-1.794 4-4 4-4-1.794-4-4 1.794-4 4-4zm-34 0c2.206 0 4 1.794 4 4s-1.794 4-4 4-4-1.794-4-4 1.794-4 4-4zm8.597 21.771l-5.163 1.99L13.474 51H27v6.446l-3.629-1.652a1.013 1.013 0 0 0-.774-.023zm16.955 1.976l-5.075-2.016a1.002 1.002 0 0 0-.727-.004L29 57.546V51h14.3l-3.748 6.747zM58 46c0 1.362-2.457 3-4 3H12l-.107.022-.164-.022H8.198C6.614 49 5 47.486 5 46v-7h3.09c.479 2.833 2.943 5 5.91 5s5.431-2.167 5.91-5h22.18c.479 2.833 2.943 5 5.91 5s5.431-2.167 5.91-5H58v7z" id="Fill-175"/><path d="M29.567 32.302a.998.998 0 0 0 .941-1.765c-6.878-3.668-5.257-7.257-3.204-11.8.881-1.949 1.783-3.948 1.876-5.96C31.258 14.095 33 16.007 33 18a1 1 0 0 0 1.894.447c1.792-3.584 3.802-7.603-.596-15.57 8.223 3.434 12.579 10.493 10.732 17.88a1 1 0 0 0 1.331 1.176c1.482-.574 3.62-2.644 4.512-6.242 1.036 1.979 2.146 4.967 1.867 7.575-.183 1.718-.934 2.995-2.295 3.902a1 1 0 0 0 1.11 1.664c1.859-1.239 2.927-3.04 3.174-5.353.491-4.595-2.519-9.962-3.745-11.228a1.001 1.001 0 0 0-1.716.644c-.143 2.694-.995 4.517-1.869 5.658.569-8.096-5.405-15.618-15.113-18.511a1 1 0 1 0-1.124 1.503c4.423 6.803 4.261 10.467 3.069 13.563-1.209-2.249-3.642-4.021-5.814-5.017a.998.998 0 0 0-1.382 1.172c.546 2.004-.474 4.261-1.554 6.651-1.98 4.383-4.444 9.839 4.086 14.388" id="Fill-176"/><path d="M40.628 30.071A1.002 1.002 0 0 0 41 32c.124 0 .249-.023.372-.071 1.939-.776 3.035-2.653 3.085-5.284.078-4.161-2.423-9.391-5.051-10.559a1 1 0 0 0-1.343 1.265c1.365 3.638.704 6.145-.655 6.741-1.103.485-2.45-.387-3.35-2.167a1.003 1.003 0 0 0-.971-.546 1.002 1.002 0 0 0-.873.691c-1.247 3.874-1.254 6.305 2.079 9.637a.999.999 0 1 0 1.414-1.414c-2.035-2.035-2.531-3.442-2.132-5.578 1.495 1.567 3.282 1.804 4.637 1.208 1.598-.701 2.768-2.576 2.597-5.45.955 1.76 1.686 4.105 1.647 6.133-.034 1.828-.649 2.994-1.828 3.465" id="Fill-177"/></g></g><metadata><rdf:RDF xmlns:rdf="http://www.w3.org/1999/02/22-rdf-syntax-ns#" xmlns:rdfs="http://www.w3.org/2000/01/rdf-schema#" xmlns:dc="http://purl.org/dc/elements/1.1/"><rdf:Description about="https://iconscout.com/legal#licenses" dc:title="car,crash" dc:description="car,crash" dc:publisher="Iconscout" dc:date="2017-09-19" dc:format="image/svg+xml" dc:language="en"><dc:creator><rdf:Bag><rdf:li>Vincent Le Moign</rdf:li></rdf:Bag></dc:creator></rdf:Description></rdf:RDF></metadata></svg>